<svg width="10" height="18" viewBox="0 0 10 18" fill="none" xmlns="http://www.w3.org/2000/svg">
<path d="M6.86124 4.58727C6.8509 5.19053 6.85906 5.79325 6.85906 6.41772C6.94501 6.42153 7.01627 6.42806 7.08807 6.42806C7.7936 6.4286 8.49968 6.42752 9.20575 6.4286C9.63331 6.42969 9.73884 6.53468 9.73938 6.95462C9.74047 7.76242 9.74101 8.57021 9.73938 9.37801C9.73829 9.75226 9.64527 9.84691 9.26885 9.84854C8.54918 9.85181 7.83005 9.84963 7.11038 9.84963H6.86015V16.4763C6.86015 17.0752 6.8014 17.1328 6.1927 17.1328C5.41863 17.1328 4.64511 17.1334 3.87158 17.1323C3.44184 17.1318 3.3423 17.0333 3.34175 16.6068C3.34121 14.4554 3.34175 12.3035 3.34175 10.1515V9.88716C3.25907 9.88227 3.18781 9.87465 3.11655 9.87465C2.52634 9.87356 1.93559 9.8752 1.34539 9.87356C0.935776 9.87193 0.836774 9.77674 0.835686 9.37094C0.832422 8.57674 0.832966 7.78254 0.835142 6.98835C0.83623 6.56623 0.933057 6.47158 1.35028 6.47103C1.93396 6.47049 2.51764 6.47103 3.10132 6.47103H3.34175C3.34175 6.3704 3.34067 6.29098 3.34175 6.21156C3.3559 5.43804 3.32815 4.66125 3.39343 3.89262C3.5588 1.95772 5.04656 0.556995 6.9907 0.484103C7.80394 0.453641 8.6188 0.471048 9.43367 0.473224C9.70294 0.474312 9.81826 0.590721 9.81989 0.861618C9.82424 1.66941 9.82424 2.47721 9.81989 3.285C9.81826 3.55971 9.70511 3.6685 9.41028 3.67557C8.86087 3.68863 8.31092 3.68917 7.76151 3.69733C7.12398 3.70712 6.87266 3.9481 6.86124 4.58727Z" fill="#555555"/>
</svg>
