<svg width="20" height="13" viewBox="0 0 20 13" fill="none" xmlns="http://www.w3.org/2000/svg">
<path d="M18.8684 2.52919C18.668 1.42172 17.9912 0.710799 16.9329 0.51725C16.4963 0.437082 16.0517 0.378673 15.6082 0.358631C13.7274 0.273595 11.8457 0.206884 9.96431 0.133301C9.96374 0.15277 9.96317 0.17224 9.96259 0.191709C9.52997 0.191709 9.09706 0.18541 8.66473 0.192854C6.87096 0.222918 5.07691 0.242673 3.29259 0.465427C2.18283 0.603717 1.41407 1.26367 1.18302 2.36084C1.05389 2.97355 0.983456 3.60173 0.932491 4.22675C0.823405 5.56356 0.796492 6.90466 0.891548 8.24347C0.950529 9.0715 1.02612 9.9021 1.16383 10.7201C1.3445 11.7915 2.08291 12.4998 3.12252 12.6542C3.7381 12.7455 4.35969 12.8234 4.98099 12.8437C6.88814 12.9055 8.79643 12.9628 10.7044 12.9723C12.6064 12.982 14.5093 12.9368 16.4038 12.7378C16.8923 12.6862 17.3736 12.6084 17.8005 12.3349C18.5065 11.8828 18.8278 11.2034 18.9048 10.4054C19.0087 9.32575 19.1141 8.24347 19.1496 7.16034C19.2008 5.61052 19.1453 4.06126 18.8684 2.52919ZM8.18715 9.3183V3.84538C9.77563 4.75844 11.3475 5.66205 12.9471 6.5817C11.3498 7.5002 9.77821 8.40352 8.18715 9.3183Z" fill="#555555"/>
</svg>
