<svg width="18" height="18" viewBox="0 0 18 18" fill="none" xmlns="http://www.w3.org/2000/svg">
<path d="M17.3299 5.10944C17.3185 3.31312 16.5176 1.95009 14.9679 1.04276C14.2859 0.643304 13.5323 0.470479 12.7419 0.470072C10.247 0.468034 7.75203 0.46192 5.25708 0.471702C3.22639 0.479447 1.52993 1.71897 0.887548 3.65469C0.792984 3.94002 0.758337 4.24572 0.696381 4.54205C0.685376 4.59463 0.676409 4.64762 0.666626 4.7002V12.902C0.711463 13.1515 0.735919 13.4066 0.803989 13.6496C1.32083 15.4944 2.5196 16.6275 4.38847 17.0498C4.556 17.0877 4.72841 17.1057 4.89838 17.133H13.1018C13.3517 17.0881 13.6069 17.0637 13.8502 16.9956C15.693 16.4796 16.8294 15.2829 17.2452 13.416C17.312 13.1172 17.3291 12.8026 17.3299 12.4952C17.3365 10.0333 17.3454 7.57137 17.3299 5.10944ZM9.00745 13.3683C6.49824 13.3826 4.43086 11.3185 4.43208 8.8003C4.43331 6.28456 6.46685 4.24816 8.99278 4.2339C11.502 4.21963 13.5694 6.28334 13.5681 8.80152C13.5669 11.3173 11.5334 13.3537 9.00745 13.3683ZM13.8437 5.34625C13.0896 5.34381 12.4554 4.70876 12.4558 3.95632C12.4558 3.20143 13.088 2.57209 13.8457 2.57291C14.6075 2.57331 15.2316 3.19817 15.2295 3.95877C15.2279 4.71691 14.5969 5.3487 13.8437 5.34625Z" fill="#555555"/>
<path d="M0.666626 12.9023C0.711463 13.1518 0.735919 13.407 0.803989 13.6499C1.32083 15.4947 2.5196 16.6279 4.38847 17.0501C4.556 17.088 4.72841 17.106 4.89838 17.1333C3.48766 17.1333 2.07694 17.1333 0.666626 17.1333C0.666626 15.723 0.666626 14.3127 0.666626 12.9023Z" fill="white"/>
<path d="M12.5837 8.80894C12.5772 10.7907 10.9598 12.3971 8.98458 12.384C7.00606 12.371 5.40988 10.765 5.4164 8.79345C5.42292 6.81208 7.04071 5.20489 9.01596 5.21835C10.9945 5.23139 12.5903 6.83735 12.5837 8.80894Z" fill="#555555"/>
<path d="M14.2448 3.95499C14.2456 4.17428 14.0601 4.36096 13.8433 4.35974C13.6285 4.35851 13.4389 4.16531 13.4422 3.95091C13.4458 3.74018 13.6268 3.56002 13.8388 3.55716C14.0609 3.55431 14.2439 3.73366 14.2448 3.95499Z" fill="#555555"/>
</svg>
