<svg width="16" height="20" viewBox="0 0 16 20" fill="none" xmlns="http://www.w3.org/2000/svg">
<path d="M15.7242 6.73551C15.7299 8.26388 15.4545 9.7396 14.7798 11.1206C14.0468 12.6198 12.9607 13.7715 11.3699 14.3539C10.1583 14.7985 8.91984 14.9079 7.70816 14.3279C7.38905 14.1757 7.0999 13.9618 6.7824 13.7666C6.67953 14.1619 6.56695 14.5717 6.46733 14.9848C6.19681 16.1114 5.87121 17.2194 5.36904 18.2691C5.1212 18.7867 4.85473 19.2937 4.42707 19.6914C4.34689 19.7659 4.25537 19.8307 4.1606 19.8874C3.79694 20.1037 3.4357 20.0032 3.23888 19.6307C3.03883 19.2516 2.99995 18.8369 2.98861 18.419C2.95135 16.9886 3.21135 15.5987 3.55071 14.217C3.93382 12.6586 4.29505 11.0938 4.65872 9.53063C4.68302 9.42534 4.67087 9.2998 4.63766 9.19531C4.24241 7.94719 4.21163 6.72336 4.89279 5.55704C5.2678 4.91556 5.80722 4.48143 6.56452 4.36237C7.63284 4.1939 8.57562 4.96416 8.65418 6.043C8.71169 6.82298 8.49138 7.5495 8.28647 8.28169C8.09613 8.95719 7.88959 9.62782 7.70007 10.3033C7.59477 10.6783 7.60449 11.0525 7.80455 11.4C8.14554 11.9896 8.69144 12.1816 9.33049 12.1241C10.0805 12.0577 10.6288 11.6284 11.0702 11.0509C11.6348 10.3122 11.9474 9.46179 12.1353 8.56194C12.3249 7.65237 12.4245 6.7347 12.29 5.80893C12.0738 4.31458 11.2395 3.30134 9.8124 2.83805C8.37232 2.37071 6.93305 2.43713 5.56262 3.11829C4.14197 3.82375 3.30206 4.99979 2.95621 6.5314C2.78127 7.30976 2.74887 8.09703 3.06961 8.8519C3.18219 9.11675 3.34742 9.36621 3.52318 9.59705C3.73295 9.87162 3.818 10.1527 3.72485 10.4888C3.64629 10.7707 3.58392 11.0566 3.50293 11.3376C3.34418 11.8932 2.9473 12.0755 2.42246 11.8414C1.38087 11.3773 0.732913 10.5552 0.374107 9.50471C-0.210674 7.79492 -0.108621 6.10294 0.672167 4.47738C1.81986 2.08966 3.76454 0.722472 6.32964 0.196007C6.72894 0.114202 7.14039 0.0866642 7.54618 0.0323978C7.58991 0.0267282 7.63284 0.0113392 7.67577 0H8.77C8.98869 0.0259183 9.20737 0.0494067 9.42606 0.0785647C11.2897 0.321548 12.8894 1.091 14.1286 2.52136C15.1702 3.72413 15.7193 5.13506 15.7242 6.73551Z" fill="black"/>
</svg>
