<svg width="17" height="18" viewBox="0 0 17 18" fill="none" xmlns="http://www.w3.org/2000/svg">
<path d="M15.986 15.7611C14.1305 13.0537 12.2734 10.3471 10.4171 7.64025C10.3928 7.60498 10.3706 7.56827 10.3404 7.52143C10.6655 7.14238 10.9891 6.76496 11.313 6.38771C12.9963 4.42717 14.6798 2.46645 16.3631 0.505733C16.3735 0.493435 16.3819 0.47951 16.3913 0.466309H14.9617C13.2145 2.50081 11.4672 4.5355 9.69223 6.60238C9.67089 6.56386 9.6557 6.53076 9.63545 6.50128C8.27242 4.51308 6.90903 2.52523 5.546 0.537019C5.53099 0.514956 5.52032 0.489999 5.50748 0.466309H0.666626C0.708582 0.53503 0.747283 0.605921 0.792675 0.67211C2.83857 3.65641 4.88501 6.64035 6.93146 9.62448C6.9528 9.65558 6.97323 9.68741 7.00307 9.73244C6.83687 9.92739 6.66977 10.1243 6.50141 10.3204C4.59892 12.5359 2.69625 14.7512 0.793941 16.967C0.74873 17.0198 0.708944 17.0775 0.666626 17.133H2.0962C2.74363 16.3754 3.38979 15.6168 4.03848 14.8603C5.19173 13.5154 6.3466 12.1715 7.50076 10.8275C7.54289 10.7783 7.58629 10.7303 7.63657 10.673C7.66912 10.7124 7.69806 10.7428 7.72157 10.777C9.15241 12.863 10.5829 14.9493 12.0132 17.0359C12.0344 17.0668 12.0514 17.1006 12.0703 17.133H16.911C16.6029 16.6756 16.2978 16.2161 15.986 15.7611ZM14.7676 16.0969C14.1506 16.0975 13.5336 16.0942 12.9165 16.1C12.8017 16.1009 12.731 16.0682 12.6639 15.9721C9.34971 11.2174 6.03284 6.46421 2.7165 1.71088C2.68594 1.66712 2.65809 1.62137 2.60926 1.5465C3.21455 1.5465 3.78819 1.56928 4.35894 1.53781C4.69657 1.51919 4.88266 1.638 5.07382 1.91325C8.31221 6.57561 11.5634 11.2291 14.8118 15.8846C14.8539 15.945 14.8946 16.0063 14.9499 16.0873C14.8705 16.0917 14.8192 16.0967 14.7676 16.0969Z" fill="#555555"/>
</svg>
